<mxfile host="app.diagrams.net" modified="2023-10-10T22:33:01.873Z" agent="Mozilla/5.0 (Macintosh; Intel Mac OS X 10_15_7) AppleWebKit/537.36 (KHTML, like Gecko) Chrome/117.0.0.0 Safari/537.36" etag="UIqNjQ7242z-qWcRphwz" version="22.0.4" type="github">
  <diagram id="C5RBs43oDa-KdzZeNtuy" name="Class">
    <mxGraphModel dx="867" dy="1753" grid="1" gridSize="10" guides="1" tooltips="1" connect="1" arrows="1" fold="1" page="1" pageScale="1" pageWidth="827" pageHeight="1169" math="0" shadow="0">
      <root>
        <mxCell id="WIyWlLk6GJQsqaUBKTNV-0" />
        <mxCell id="WIyWlLk6GJQsqaUBKTNV-1" parent="WIyWlLk6GJQsqaUBKTNV-0" />
        <mxCell id="mL3Gv7UYM2EhH2xch4jW-1" value="&lt;p style=&quot;margin:0px;margin-top:4px;text-align:center;&quot;&gt;&lt;i&gt;&amp;lt;&amp;lt;Interface&amp;gt;&amp;gt;&lt;/i&gt;&lt;br&gt;&lt;b&gt;Interface&lt;/b&gt;&lt;/p&gt;&lt;hr size=&quot;1&quot;&gt;&lt;p style=&quot;margin:0px;margin-left:4px;&quot;&gt;+&amp;nbsp;&lt;br&gt;&lt;/p&gt;&lt;hr size=&quot;1&quot;&gt;&lt;p style=&quot;margin:0px;margin-left:4px;&quot;&gt;+&amp;nbsp;&lt;br&gt;&lt;/p&gt;" style="verticalAlign=top;align=left;overflow=fill;fontSize=12;fontFamily=Helvetica;html=1;whiteSpace=wrap;" vertex="1" parent="WIyWlLk6GJQsqaUBKTNV-1">
          <mxGeometry x="100" y="-307" width="190" height="100" as="geometry" />
        </mxCell>
        <mxCell id="mL3Gv7UYM2EhH2xch4jW-2" value="Classname" style="swimlane;fontStyle=1;align=center;verticalAlign=top;childLayout=stackLayout;horizontal=1;startSize=26;horizontalStack=0;resizeParent=1;resizeParentMax=0;resizeLast=0;collapsible=1;marginBottom=0;whiteSpace=wrap;html=1;" vertex="1" parent="WIyWlLk6GJQsqaUBKTNV-1">
          <mxGeometry x="380" y="-300" width="160" height="82" as="geometry" />
        </mxCell>
        <mxCell id="mL3Gv7UYM2EhH2xch4jW-3" value="+ field: type" style="text;strokeColor=none;fillColor=none;align=left;verticalAlign=top;spacingLeft=4;spacingRight=4;overflow=hidden;rotatable=0;points=[[0,0.5],[1,0.5]];portConstraint=eastwest;whiteSpace=wrap;html=1;" vertex="1" parent="mL3Gv7UYM2EhH2xch4jW-2">
          <mxGeometry y="26" width="160" height="22" as="geometry" />
        </mxCell>
        <mxCell id="mL3Gv7UYM2EhH2xch4jW-4" value="" style="line;strokeWidth=1;fillColor=none;align=left;verticalAlign=middle;spacingTop=-1;spacingLeft=3;spacingRight=3;rotatable=0;labelPosition=right;points=[];portConstraint=eastwest;strokeColor=inherit;" vertex="1" parent="mL3Gv7UYM2EhH2xch4jW-2">
          <mxGeometry y="48" width="160" height="8" as="geometry" />
        </mxCell>
        <mxCell id="mL3Gv7UYM2EhH2xch4jW-5" value="+ method(type): type" style="text;strokeColor=none;fillColor=none;align=left;verticalAlign=top;spacingLeft=4;spacingRight=4;overflow=hidden;rotatable=0;points=[[0,0.5],[1,0.5]];portConstraint=eastwest;whiteSpace=wrap;html=1;" vertex="1" parent="mL3Gv7UYM2EhH2xch4jW-2">
          <mxGeometry y="56" width="160" height="26" as="geometry" />
        </mxCell>
        <mxCell id="mL3Gv7UYM2EhH2xch4jW-6" value="NearbyZoneFinderReactor" style="swimlane;fontStyle=1;align=center;verticalAlign=top;childLayout=stackLayout;horizontal=1;startSize=26;horizontalStack=0;resizeParent=1;resizeParentMax=0;resizeLast=0;collapsible=1;marginBottom=0;whiteSpace=wrap;html=1;" vertex="1" parent="WIyWlLk6GJQsqaUBKTNV-1">
          <mxGeometry x="90" y="644" width="250" height="60" as="geometry" />
        </mxCell>
        <mxCell id="mL3Gv7UYM2EhH2xch4jW-7" value="&lt;font style=&quot;font-size: 9px;&quot;&gt;+ zoneListRepository:&amp;nbsp;&lt;b style=&quot;border-color: var(--border-color); text-align: center; font-size: 9px;&quot;&gt;ZoneListRepositoryProtocol&lt;/b&gt;&lt;/font&gt;" style="text;strokeColor=none;fillColor=none;align=left;verticalAlign=top;spacingLeft=4;spacingRight=4;overflow=hidden;rotatable=0;points=[[0,0.5],[1,0.5]];portConstraint=eastwest;whiteSpace=wrap;html=1;" vertex="1" parent="mL3Gv7UYM2EhH2xch4jW-6">
          <mxGeometry y="26" width="250" height="26" as="geometry" />
        </mxCell>
        <mxCell id="mL3Gv7UYM2EhH2xch4jW-8" value="" style="line;strokeWidth=1;fillColor=none;align=left;verticalAlign=middle;spacingTop=-1;spacingLeft=3;spacingRight=3;rotatable=0;labelPosition=right;points=[];portConstraint=eastwest;strokeColor=inherit;" vertex="1" parent="mL3Gv7UYM2EhH2xch4jW-6">
          <mxGeometry y="52" width="250" height="8" as="geometry" />
        </mxCell>
        <mxCell id="mL3Gv7UYM2EhH2xch4jW-10" value="ZoneProductListReactor" style="swimlane;fontStyle=1;align=center;verticalAlign=top;childLayout=stackLayout;horizontal=1;startSize=26;horizontalStack=0;resizeParent=1;resizeParentMax=0;resizeLast=0;collapsible=1;marginBottom=0;whiteSpace=wrap;html=1;" vertex="1" parent="WIyWlLk6GJQsqaUBKTNV-1">
          <mxGeometry x="400" y="644" width="160" height="86" as="geometry" />
        </mxCell>
        <mxCell id="mL3Gv7UYM2EhH2xch4jW-11" value="+ field: type" style="text;strokeColor=none;fillColor=none;align=left;verticalAlign=top;spacingLeft=4;spacingRight=4;overflow=hidden;rotatable=0;points=[[0,0.5],[1,0.5]];portConstraint=eastwest;whiteSpace=wrap;html=1;" vertex="1" parent="mL3Gv7UYM2EhH2xch4jW-10">
          <mxGeometry y="26" width="160" height="26" as="geometry" />
        </mxCell>
        <mxCell id="mL3Gv7UYM2EhH2xch4jW-12" value="" style="line;strokeWidth=1;fillColor=none;align=left;verticalAlign=middle;spacingTop=-1;spacingLeft=3;spacingRight=3;rotatable=0;labelPosition=right;points=[];portConstraint=eastwest;strokeColor=inherit;" vertex="1" parent="mL3Gv7UYM2EhH2xch4jW-10">
          <mxGeometry y="52" width="160" height="8" as="geometry" />
        </mxCell>
        <mxCell id="mL3Gv7UYM2EhH2xch4jW-13" value="+ method(type): type" style="text;strokeColor=none;fillColor=none;align=left;verticalAlign=top;spacingLeft=4;spacingRight=4;overflow=hidden;rotatable=0;points=[[0,0.5],[1,0.5]];portConstraint=eastwest;whiteSpace=wrap;html=1;" vertex="1" parent="mL3Gv7UYM2EhH2xch4jW-10">
          <mxGeometry y="60" width="160" height="26" as="geometry" />
        </mxCell>
        <mxCell id="mL3Gv7UYM2EhH2xch4jW-14" value="FavoriteZonesReactor" style="swimlane;fontStyle=1;align=center;verticalAlign=top;childLayout=stackLayout;horizontal=1;startSize=26;horizontalStack=0;resizeParent=1;resizeParentMax=0;resizeLast=0;collapsible=1;marginBottom=0;whiteSpace=wrap;html=1;" vertex="1" parent="WIyWlLk6GJQsqaUBKTNV-1">
          <mxGeometry x="630" y="644" width="160" height="86" as="geometry" />
        </mxCell>
        <mxCell id="mL3Gv7UYM2EhH2xch4jW-15" value="+ field: type" style="text;strokeColor=none;fillColor=none;align=left;verticalAlign=top;spacingLeft=4;spacingRight=4;overflow=hidden;rotatable=0;points=[[0,0.5],[1,0.5]];portConstraint=eastwest;whiteSpace=wrap;html=1;" vertex="1" parent="mL3Gv7UYM2EhH2xch4jW-14">
          <mxGeometry y="26" width="160" height="26" as="geometry" />
        </mxCell>
        <mxCell id="mL3Gv7UYM2EhH2xch4jW-16" value="" style="line;strokeWidth=1;fillColor=none;align=left;verticalAlign=middle;spacingTop=-1;spacingLeft=3;spacingRight=3;rotatable=0;labelPosition=right;points=[];portConstraint=eastwest;strokeColor=inherit;" vertex="1" parent="mL3Gv7UYM2EhH2xch4jW-14">
          <mxGeometry y="52" width="160" height="8" as="geometry" />
        </mxCell>
        <mxCell id="mL3Gv7UYM2EhH2xch4jW-17" value="+ method(type): type" style="text;strokeColor=none;fillColor=none;align=left;verticalAlign=top;spacingLeft=4;spacingRight=4;overflow=hidden;rotatable=0;points=[[0,0.5],[1,0.5]];portConstraint=eastwest;whiteSpace=wrap;html=1;" vertex="1" parent="mL3Gv7UYM2EhH2xch4jW-14">
          <mxGeometry y="60" width="160" height="26" as="geometry" />
        </mxCell>
        <mxCell id="mL3Gv7UYM2EhH2xch4jW-18" value="ZoneAndProductGroupResponseModel" style="swimlane;fontStyle=1;align=center;verticalAlign=top;childLayout=stackLayout;horizontal=1;startSize=26;horizontalStack=0;resizeParent=1;resizeParentMax=0;resizeLast=0;collapsible=1;marginBottom=0;whiteSpace=wrap;html=1;" vertex="1" parent="WIyWlLk6GJQsqaUBKTNV-1">
          <mxGeometry x="520" y="162" width="250" height="34" as="geometry" />
        </mxCell>
        <mxCell id="mL3Gv7UYM2EhH2xch4jW-20" value="" style="line;strokeWidth=1;fillColor=none;align=left;verticalAlign=middle;spacingTop=-1;spacingLeft=3;spacingRight=3;rotatable=0;labelPosition=right;points=[];portConstraint=eastwest;strokeColor=inherit;" vertex="1" parent="mL3Gv7UYM2EhH2xch4jW-18">
          <mxGeometry y="26" width="250" height="8" as="geometry" />
        </mxCell>
        <mxCell id="mL3Gv7UYM2EhH2xch4jW-37" style="edgeStyle=orthogonalEdgeStyle;rounded=0;orthogonalLoop=1;jettySize=auto;html=1;" edge="1" parent="WIyWlLk6GJQsqaUBKTNV-1" source="mL3Gv7UYM2EhH2xch4jW-26">
          <mxGeometry relative="1" as="geometry">
            <mxPoint x="365" y="250" as="targetPoint" />
          </mxGeometry>
        </mxCell>
        <mxCell id="mL3Gv7UYM2EhH2xch4jW-26" value="&lt;p style=&quot;margin:0px;margin-top:4px;text-align:center;&quot;&gt;&lt;i&gt;&amp;lt;&amp;lt;Interface&amp;gt;&amp;gt;&lt;/i&gt;&lt;br&gt;&lt;b&gt;ZoneListRepositoryProtocol&lt;/b&gt;&lt;/p&gt;&lt;hr size=&quot;1&quot;&gt;&lt;p style=&quot;margin:0px;margin-left:4px;&quot;&gt;+ mapper: ZoneListMappable&lt;/p&gt;&lt;p style=&quot;margin:0px;margin-left:4px;&quot;&gt;+ zoneService: ZoneServiceProtocol&lt;br&gt;&lt;/p&gt;&lt;hr size=&quot;1&quot;&gt;&lt;p style=&quot;margin:0px;margin-left:4px;&quot;&gt;+ getZoneList() -&amp;gt; Observable&amp;lt;ZoneList&amp;gt;&lt;br&gt;&lt;/p&gt;&lt;p style=&quot;margin:0px;margin-left:4px;&quot;&gt;&lt;br&gt;&lt;/p&gt;" style="verticalAlign=top;align=left;overflow=fill;fontSize=12;fontFamily=Helvetica;html=1;whiteSpace=wrap;" vertex="1" parent="WIyWlLk6GJQsqaUBKTNV-1">
          <mxGeometry x="230" y="280" width="270" height="130" as="geometry" />
        </mxCell>
        <mxCell id="mL3Gv7UYM2EhH2xch4jW-56" style="edgeStyle=orthogonalEdgeStyle;rounded=0;orthogonalLoop=1;jettySize=auto;html=1;" edge="1" parent="WIyWlLk6GJQsqaUBKTNV-1">
          <mxGeometry relative="1" as="geometry">
            <mxPoint x="128" y="41.99999999999977" as="targetPoint" />
            <mxPoint x="118" y="161.99999999999977" as="sourcePoint" />
            <Array as="points">
              <mxPoint x="118" y="102" />
              <mxPoint x="128" y="102" />
            </Array>
          </mxGeometry>
        </mxCell>
        <mxCell id="mL3Gv7UYM2EhH2xch4jW-27" value="ZoneList" style="swimlane;fontStyle=1;align=center;verticalAlign=top;childLayout=stackLayout;horizontal=1;startSize=26;horizontalStack=0;resizeParent=1;resizeParentMax=0;resizeLast=0;collapsible=1;marginBottom=0;whiteSpace=wrap;html=1;" vertex="1" parent="WIyWlLk6GJQsqaUBKTNV-1">
          <mxGeometry x="30" y="162" width="220" height="86" as="geometry" />
        </mxCell>
        <mxCell id="mL3Gv7UYM2EhH2xch4jW-28" value="+ items: [Zone]" style="text;strokeColor=none;fillColor=none;align=left;verticalAlign=top;spacingLeft=4;spacingRight=4;overflow=hidden;rotatable=0;points=[[0,0.5],[1,0.5]];portConstraint=eastwest;whiteSpace=wrap;html=1;" vertex="1" parent="mL3Gv7UYM2EhH2xch4jW-27">
          <mxGeometry y="26" width="220" height="26" as="geometry" />
        </mxCell>
        <mxCell id="mL3Gv7UYM2EhH2xch4jW-29" value="" style="line;strokeWidth=1;fillColor=none;align=left;verticalAlign=middle;spacingTop=-1;spacingLeft=3;spacingRight=3;rotatable=0;labelPosition=right;points=[];portConstraint=eastwest;strokeColor=inherit;" vertex="1" parent="mL3Gv7UYM2EhH2xch4jW-27">
          <mxGeometry y="52" width="220" height="8" as="geometry" />
        </mxCell>
        <mxCell id="mL3Gv7UYM2EhH2xch4jW-30" value="+ getProducts(of: Zone) -&amp;gt; ProductList" style="text;strokeColor=none;fillColor=none;align=left;verticalAlign=top;spacingLeft=4;spacingRight=4;overflow=hidden;rotatable=0;points=[[0,0.5],[1,0.5]];portConstraint=eastwest;whiteSpace=wrap;html=1;" vertex="1" parent="mL3Gv7UYM2EhH2xch4jW-27">
          <mxGeometry y="60" width="220" height="26" as="geometry" />
        </mxCell>
        <mxCell id="mL3Gv7UYM2EhH2xch4jW-33" value="ZoneListMappable" style="swimlane;fontStyle=1;align=center;verticalAlign=top;childLayout=stackLayout;horizontal=1;startSize=26;horizontalStack=0;resizeParent=1;resizeParentMax=0;resizeLast=0;collapsible=1;marginBottom=0;whiteSpace=wrap;html=1;" vertex="1" parent="WIyWlLk6GJQsqaUBKTNV-1">
          <mxGeometry x="270" y="162" width="230" height="84" as="geometry" />
        </mxCell>
        <mxCell id="mL3Gv7UYM2EhH2xch4jW-35" value="" style="line;strokeWidth=1;fillColor=none;align=left;verticalAlign=middle;spacingTop=-1;spacingLeft=3;spacingRight=3;rotatable=0;labelPosition=right;points=[];portConstraint=eastwest;strokeColor=inherit;" vertex="1" parent="mL3Gv7UYM2EhH2xch4jW-33">
          <mxGeometry y="26" width="230" height="8" as="geometry" />
        </mxCell>
        <mxCell id="mL3Gv7UYM2EhH2xch4jW-39" style="edgeStyle=orthogonalEdgeStyle;rounded=0;orthogonalLoop=1;jettySize=auto;html=1;" edge="1" parent="mL3Gv7UYM2EhH2xch4jW-33" source="mL3Gv7UYM2EhH2xch4jW-36">
          <mxGeometry relative="1" as="geometry">
            <mxPoint x="370" y="38" as="targetPoint" />
            <Array as="points">
              <mxPoint x="370" y="59" />
            </Array>
          </mxGeometry>
        </mxCell>
        <mxCell id="mL3Gv7UYM2EhH2xch4jW-36" value="&lt;font style=&quot;font-size: 9px;&quot;&gt;+ map(&lt;br&gt;&amp;nbsp; &amp;nbsp;input:&amp;nbsp;&lt;font style=&quot;font-size: 9px;&quot;&gt;ZoneAndProductGroupResponseModel&lt;/font&gt;&lt;br style=&quot;font-size: 9px;&quot;&gt;) -&amp;gt;&amp;nbsp; ZoneList&lt;/font&gt;" style="text;strokeColor=none;fillColor=none;align=left;verticalAlign=top;spacingLeft=4;spacingRight=4;overflow=hidden;rotatable=0;points=[[0,0.5],[1,0.5]];portConstraint=eastwest;whiteSpace=wrap;html=1;" vertex="1" parent="mL3Gv7UYM2EhH2xch4jW-33">
          <mxGeometry y="34" width="230" height="50" as="geometry" />
        </mxCell>
        <mxCell id="mL3Gv7UYM2EhH2xch4jW-38" style="edgeStyle=orthogonalEdgeStyle;rounded=0;orthogonalLoop=1;jettySize=auto;html=1;entryX=0.419;entryY=1.088;entryDx=0;entryDy=0;entryPerimeter=0;exitX=0;exitY=0.5;exitDx=0;exitDy=0;" edge="1" parent="WIyWlLk6GJQsqaUBKTNV-1" source="mL3Gv7UYM2EhH2xch4jW-26" target="mL3Gv7UYM2EhH2xch4jW-30">
          <mxGeometry relative="1" as="geometry">
            <Array as="points">
              <mxPoint x="134" y="345" />
            </Array>
          </mxGeometry>
        </mxCell>
        <mxCell id="mL3Gv7UYM2EhH2xch4jW-41" value="Product" style="swimlane;fontStyle=1;align=center;verticalAlign=top;childLayout=stackLayout;horizontal=1;startSize=26;horizontalStack=0;resizeParent=1;resizeParentMax=0;resizeLast=0;collapsible=1;marginBottom=0;whiteSpace=wrap;html=1;" vertex="1" parent="WIyWlLk6GJQsqaUBKTNV-1">
          <mxGeometry x="70" y="-190" width="160" height="128" as="geometry" />
        </mxCell>
        <mxCell id="mL3Gv7UYM2EhH2xch4jW-42" value="+ id: String&lt;br style=&quot;border-color: var(--border-color);&quot;&gt;+ name: String&lt;br&gt;+ description: String&lt;br&gt;+&amp;nbsp;imageUrl: URL?&lt;br&gt;+ category: String" style="text;strokeColor=none;fillColor=none;align=left;verticalAlign=top;spacingLeft=4;spacingRight=4;overflow=hidden;rotatable=0;points=[[0,0.5],[1,0.5]];portConstraint=eastwest;whiteSpace=wrap;html=1;" vertex="1" parent="mL3Gv7UYM2EhH2xch4jW-41">
          <mxGeometry y="26" width="160" height="94" as="geometry" />
        </mxCell>
        <mxCell id="mL3Gv7UYM2EhH2xch4jW-43" value="" style="line;strokeWidth=1;fillColor=none;align=left;verticalAlign=middle;spacingTop=-1;spacingLeft=3;spacingRight=3;rotatable=0;labelPosition=right;points=[];portConstraint=eastwest;strokeColor=inherit;" vertex="1" parent="mL3Gv7UYM2EhH2xch4jW-41">
          <mxGeometry y="120" width="160" height="8" as="geometry" />
        </mxCell>
        <mxCell id="mL3Gv7UYM2EhH2xch4jW-46" value="Zone" style="swimlane;fontStyle=1;align=center;verticalAlign=top;childLayout=stackLayout;horizontal=1;startSize=26;horizontalStack=0;resizeParent=1;resizeParentMax=0;resizeLast=0;collapsible=1;marginBottom=0;whiteSpace=wrap;html=1;" vertex="1" parent="WIyWlLk6GJQsqaUBKTNV-1">
          <mxGeometry x="280" y="-40" width="160" height="144" as="geometry" />
        </mxCell>
        <mxCell id="mL3Gv7UYM2EhH2xch4jW-47" value="+ id: String&lt;br&gt;+ name: String&lt;br&gt;+ alias: String&lt;br&gt;+ location: Location&lt;br&gt;+ products: [Product]" style="text;strokeColor=none;fillColor=none;align=left;verticalAlign=top;spacingLeft=4;spacingRight=4;overflow=hidden;rotatable=0;points=[[0,0.5],[1,0.5]];portConstraint=eastwest;whiteSpace=wrap;html=1;" vertex="1" parent="mL3Gv7UYM2EhH2xch4jW-46">
          <mxGeometry y="26" width="160" height="84" as="geometry" />
        </mxCell>
        <mxCell id="mL3Gv7UYM2EhH2xch4jW-48" value="" style="line;strokeWidth=1;fillColor=none;align=left;verticalAlign=middle;spacingTop=-1;spacingLeft=3;spacingRight=3;rotatable=0;labelPosition=right;points=[];portConstraint=eastwest;strokeColor=inherit;" vertex="1" parent="mL3Gv7UYM2EhH2xch4jW-46">
          <mxGeometry y="110" width="160" height="8" as="geometry" />
        </mxCell>
        <mxCell id="mL3Gv7UYM2EhH2xch4jW-49" value="+ method(type): type" style="text;strokeColor=none;fillColor=none;align=left;verticalAlign=top;spacingLeft=4;spacingRight=4;overflow=hidden;rotatable=0;points=[[0,0.5],[1,0.5]];portConstraint=eastwest;whiteSpace=wrap;html=1;" vertex="1" parent="mL3Gv7UYM2EhH2xch4jW-46">
          <mxGeometry y="118" width="160" height="26" as="geometry" />
        </mxCell>
        <mxCell id="mL3Gv7UYM2EhH2xch4jW-50" style="edgeStyle=orthogonalEdgeStyle;rounded=0;orthogonalLoop=1;jettySize=auto;html=1;entryX=0.473;entryY=1.038;entryDx=0;entryDy=0;entryPerimeter=0;" edge="1" parent="WIyWlLk6GJQsqaUBKTNV-1" source="mL3Gv7UYM2EhH2xch4jW-27" target="mL3Gv7UYM2EhH2xch4jW-49">
          <mxGeometry relative="1" as="geometry" />
        </mxCell>
        <mxCell id="mL3Gv7UYM2EhH2xch4jW-52" value="ProductList" style="swimlane;fontStyle=1;align=center;verticalAlign=top;childLayout=stackLayout;horizontal=1;startSize=26;horizontalStack=0;resizeParent=1;resizeParentMax=0;resizeLast=0;collapsible=1;marginBottom=0;whiteSpace=wrap;html=1;" vertex="1" parent="WIyWlLk6GJQsqaUBKTNV-1">
          <mxGeometry x="70" y="-40" width="180" height="82" as="geometry" />
        </mxCell>
        <mxCell id="mL3Gv7UYM2EhH2xch4jW-53" value="+ items: [Product]" style="text;strokeColor=none;fillColor=none;align=left;verticalAlign=top;spacingLeft=4;spacingRight=4;overflow=hidden;rotatable=0;points=[[0,0.5],[1,0.5]];portConstraint=eastwest;whiteSpace=wrap;html=1;" vertex="1" parent="mL3Gv7UYM2EhH2xch4jW-52">
          <mxGeometry y="26" width="180" height="22" as="geometry" />
        </mxCell>
        <mxCell id="mL3Gv7UYM2EhH2xch4jW-54" value="" style="line;strokeWidth=1;fillColor=none;align=left;verticalAlign=middle;spacingTop=-1;spacingLeft=3;spacingRight=3;rotatable=0;labelPosition=right;points=[];portConstraint=eastwest;strokeColor=inherit;" vertex="1" parent="mL3Gv7UYM2EhH2xch4jW-52">
          <mxGeometry y="48" width="180" height="8" as="geometry" />
        </mxCell>
        <mxCell id="mL3Gv7UYM2EhH2xch4jW-55" value="+ items(by category: String)&amp;nbsp;" style="text;strokeColor=none;fillColor=none;align=left;verticalAlign=top;spacingLeft=4;spacingRight=4;overflow=hidden;rotatable=0;points=[[0,0.5],[1,0.5]];portConstraint=eastwest;whiteSpace=wrap;html=1;" vertex="1" parent="mL3Gv7UYM2EhH2xch4jW-52">
          <mxGeometry y="56" width="180" height="26" as="geometry" />
        </mxCell>
        <mxCell id="mL3Gv7UYM2EhH2xch4jW-57" style="edgeStyle=orthogonalEdgeStyle;rounded=0;orthogonalLoop=1;jettySize=auto;html=1;exitX=0.5;exitY=0;exitDx=0;exitDy=0;entryX=0.576;entryY=0.875;entryDx=0;entryDy=0;entryPerimeter=0;" edge="1" parent="WIyWlLk6GJQsqaUBKTNV-1" source="mL3Gv7UYM2EhH2xch4jW-52" target="mL3Gv7UYM2EhH2xch4jW-43">
          <mxGeometry relative="1" as="geometry" />
        </mxCell>
        <mxCell id="mL3Gv7UYM2EhH2xch4jW-59" style="edgeStyle=orthogonalEdgeStyle;rounded=0;orthogonalLoop=1;jettySize=auto;html=1;entryX=0.5;entryY=1;entryDx=0;entryDy=0;dashed=1;endArrow=block;endFill=0;" edge="1" parent="WIyWlLk6GJQsqaUBKTNV-1" source="mL3Gv7UYM2EhH2xch4jW-58" target="mL3Gv7UYM2EhH2xch4jW-26">
          <mxGeometry relative="1" as="geometry" />
        </mxCell>
        <mxCell id="mL3Gv7UYM2EhH2xch4jW-58" value="&lt;p style=&quot;margin:0px;margin-top:4px;text-align:center;&quot;&gt;&lt;i&gt;&amp;lt;&amp;lt;Interface&amp;gt;&amp;gt;&lt;/i&gt;&lt;br&gt;&lt;b&gt;CachedZoneListRepositoryProtocol&lt;/b&gt;&lt;/p&gt;&lt;hr size=&quot;1&quot;&gt;&lt;p style=&quot;margin:0px;margin-left:4px;&quot;&gt;&lt;br&gt;&lt;/p&gt;&lt;hr size=&quot;1&quot;&gt;&lt;p style=&quot;margin:0px;margin-left:4px;&quot;&gt;+ init(repository: ZoneListRepositoryProtocol)&lt;br&gt;&lt;/p&gt;&lt;p style=&quot;margin:0px;margin-left:4px;&quot;&gt;&lt;br&gt;&lt;/p&gt;" style="verticalAlign=top;align=left;overflow=fill;fontSize=12;fontFamily=Helvetica;html=1;whiteSpace=wrap;" vertex="1" parent="WIyWlLk6GJQsqaUBKTNV-1">
          <mxGeometry x="230" y="455" width="270" height="130" as="geometry" />
        </mxCell>
        <mxCell id="mL3Gv7UYM2EhH2xch4jW-60" style="edgeStyle=orthogonalEdgeStyle;rounded=0;orthogonalLoop=1;jettySize=auto;html=1;entryX=0.324;entryY=0.994;entryDx=0;entryDy=0;entryPerimeter=0;" edge="1" parent="WIyWlLk6GJQsqaUBKTNV-1" source="mL3Gv7UYM2EhH2xch4jW-6" target="mL3Gv7UYM2EhH2xch4jW-58">
          <mxGeometry relative="1" as="geometry" />
        </mxCell>
      </root>
    </mxGraphModel>
  </diagram>
</mxfile>
